<?xml version="1.0" standalone="no"?>
<!DOCTYPE svg PUBLIC "-//W3C//DTD SVG 20010904//EN"
 "http://www.w3.org/TR/2001/REC-SVG-20010904/DTD/svg10.dtd">
<svg version="1.0" xmlns="http://www.w3.org/2000/svg"
 width="240.000000pt" height="240.000000pt" viewBox="0 0 240.000000 240.000000"
 preserveAspectRatio="xMidYMid meet">
<metadata>
Created by potrace 1.11, written by Peter Selinger 2001-2013
</metadata>
<g transform="translate(0.000000,240.000000) scale(0.100000,-0.100000)"
fill="#000000" stroke="none">
<path d="M1040 2370 c-82 -12 -222 -52 -315 -91 -123 -51 -250 -141 -365 -258
-160 -164 -245 -315 -307 -549 -23 -87 -26 -115 -26 -272 0 -157 3 -185 26
-272 64 -241 148 -388 317 -558 170 -169 317 -253 558 -317 87 -23 115 -26
272 -26 157 0 185 3 272 26 241 64 388 148 558 317 169 170 253 317 317 558
23 87 26 115 26 272 0 157 -3 185 -26 272 -64 241 -148 388 -317 558 -171 170
-322 256 -558 316 -110 28 -319 40 -432 24z m695 -1140 l0 -285 -510 0 -510 0
-3 275 c-1 151 0 280 3 287 3 11 108 13 512 11 l508 -3 0 -285z m-1135 -185
l5 -180 441 -3 c396 -2 443 -4 448 -18 17 -44 8 -44 -478 -42 l-461 3 -3 200
c-1 110 0 206 3 213 3 7 13 12 22 10 16 -3 19 -22 23 -183z"/>
<path d="M907 1453 c-4 -3 -7 -14 -7 -24 0 -28 -55 -85 -92 -95 l-33 -10 0
-93 0 -93 40 -14 c45 -15 74 -45 82 -86 l6 -28 317 0 318 0 12 34 c14 43 50
77 92 85 l33 7 0 93 0 93 -40 14 c-45 15 -80 53 -89 95 l-5 29 -314 0 c-173 0
-317 -3 -320 -7z m368 -107 c92 -39 100 -177 13 -222 -36 -19 -97 -21 -128 -4
-53 28 -78 130 -44 179 21 30 73 61 102 61 12 0 38 -6 57 -14z"/>
</g>
</svg>
